<?xml version="1.0" standalone="no"?>
<!DOCTYPE svg PUBLIC "-//W3C//DTD SVG 20010904//EN"
 "http://www.w3.org/TR/2001/REC-SVG-20010904/DTD/svg10.dtd">
<svg version="1.0" xmlns="http://www.w3.org/2000/svg"
 width="1920.000000pt" height="1920.000000pt" viewBox="0 0 1920.000000 1920.000000"
 preserveAspectRatio="xMidYMid meet">
<metadata>
Created by potrace 1.14, written by Peter Selinger 2001-2017
</metadata>
<g transform="translate(0.000000,1920.000000) scale(0.100000,-0.100000)"
fill="#000000" stroke="none">
<path d="M6589 13196 c-2 -2 -50 -6 -107 -10 -56 -4 -108 -9 -115 -11 -6 -2
-41 -6 -77 -10 -36 -3 -74 -8 -85 -10 -11 -2 -38 -6 -60 -9 -210 -25 -629
-143 -823 -232 -29 -13 -55 -24 -58 -24 -11 0 -253 -125 -330 -170 -128 -76
-296 -197 -427 -308 -40 -34 -254 -248 -287 -288 -279 -331 -486 -706 -630
-1144 -44 -135 -129 -484 -146 -605 -3 -16 -11 -73 -19 -125 -8 -52 -17 -133
-21 -180 -3 -47 -8 -87 -9 -90 -9 -15 -19 -304 -19 -525 0 -220 9 -461 18
-512 2 -10 7 -49 10 -88 7 -71 8 -80 20 -170 11 -77 18 -122 52 -304 12 -62
86 -335 112 -416 275 -832 817 -1426 1590 -1744 247 -101 592 -198 812 -227
19 -2 60 -8 90 -14 30 -5 82 -12 115 -15 33 -3 71 -8 85 -10 179 -26 941 -27
1079 0 9 1 50 6 91 10 41 4 77 9 80 10 3 2 35 7 70 10 36 4 67 8 71 10 3 2 28
7 55 10 81 11 397 82 579 131 94 25 179 47 190 49 11 3 29 7 40 9 11 3 49 11
85 20 250 58 362 25 449 -129 l31 -55 55 0 c50 0 55 2 56 23 0 12 2 51 4 87 1
36 6 175 9 310 4 135 9 288 11 342 2 53 7 188 10 300 4 111 8 253 10 313 11
339 18 588 19 724 l1 155 -83 -1 c-46 0 -87 -5 -92 -9 -4 -5 -38 -76 -75 -159
-37 -82 -75 -166 -85 -185 -10 -19 -46 -91 -81 -160 -234 -471 -504 -872 -764
-1135 -151 -152 -221 -208 -400 -323 -19 -11 -167 -84 -210 -103 -21 -8 -139
-42 -187 -53 -116 -26 -353 -27 -478 -2 -311 62 -557 212 -763 466 -201 249
-354 581 -460 1005 -20 77 -38 154 -41 170 -3 17 -12 68 -21 115 -9 47 -18
101 -21 120 -3 19 -9 60 -14 90 -5 30 -12 80 -15 110 -3 30 -7 69 -10 86 -2
17 -6 62 -10 100 -3 38 -8 89 -10 114 -16 173 -20 387 -20 1070 0 757 5 976
29 1215 4 39 9 89 11 112 4 53 16 151 30 238 3 22 7 55 10 73 2 18 6 45 10 60
7 35 11 57 20 112 12 75 64 287 101 408 162 532 431 896 788 1063 95 44 220
82 326 100 109 18 357 16 460 -4 446 -87 826 -391 1204 -962 106 -159 236
-375 236 -390 0 -4 8 -19 19 -33 26 -38 169 -323 261 -520 l78 -167 92 -3 92
-3 -7 178 c-3 98 -8 221 -10 273 -2 52 -7 176 -10 275 -3 99 -8 225 -10 280
-2 55 -7 170 -10 255 -28 761 -33 900 -34 918 -1 8 -19 12 -55 12 l-55 0 -35
-59 c-69 -113 -127 -144 -264 -140 -88 3 -198 25 -374 75 -179 51 -435 119
-493 130 -11 2 -55 11 -98 20 -87 17 -91 18 -202 35 -96 14 -110 16 -200 24
-38 4 -83 9 -100 11 -35 6 -651 15 -656 10z"/>
<path d="M9557 13002 c1 -48 2 -91 2 -97 1 -6 98 -9 276 -8 151 1 275 -1 275
-5 1 -12 1 -6615 1 -6643 l-1 -27 -271 0 c-148 0 -273 -2 -276 -5 -4 -5 -7
-103 -4 -169 1 -17 81 -18 1539 -18 l1537 0 0 98 1 97 -278 -2 -278 -2 0 1600
c0 879 1 1599 3 1600 1 0 22 2 47 5 l45 5 73 -143 c40 -79 100 -195 133 -258
33 -63 108 -207 166 -320 58 -113 129 -250 158 -305 29 -55 92 -176 140 -270
48 -93 111 -215 140 -270 29 -55 96 -185 150 -290 54 -104 119 -230 145 -280
26 -49 89 -171 140 -270 51 -99 114 -220 140 -270 91 -173 270 -524 270 -530
0 -3 -89 -5 -197 -5 -109 1 -214 1 -235 1 l-36 -1 0 -95 -1 -95 1620 0 1619 0
0 95 c0 84 -2 95 -17 96 -10 0 -133 1 -273 2 l-255 2 -21 40 c-22 44 -242 474
-434 850 -148 291 -317 621 -455 890 -56 110 -169 331 -250 490 -81 160 -194
380 -250 490 -101 197 -225 439 -473 925 -68 135 -171 335 -227 445 -56 110
-149 291 -205 402 l-103 202 38 47 c21 25 46 53 55 62 9 10 79 87 155 172 77
85 144 160 149 166 6 6 34 38 63 71 29 33 67 75 85 95 28 29 121 133 178 198
8 9 46 51 83 92 37 42 76 85 85 96 25 28 138 155 297 331 77 86 196 219 265
296 69 77 129 145 135 151 5 6 41 45 78 87 l68 76 292 0 c161 0 297 0 302 1 6
0 10 38 10 95 l0 95 -882 0 -883 0 0 -95 0 -95 53 -1 c28 0 204 0 389 0 186 0
340 -3 342 -8 3 -4 -5 -17 -17 -27 -12 -11 -47 -48 -77 -83 -65 -75 -72 -82
-175 -196 -44 -48 -87 -95 -95 -105 -52 -59 -147 -166 -160 -179 -9 -9 -94
-104 -190 -211 -96 -107 -177 -197 -180 -200 -3 -3 -64 -70 -135 -150 -71 -80
-132 -147 -135 -150 -3 -3 -41 -45 -85 -95 -44 -49 -82 -92 -85 -95 -3 -3 -41
-45 -85 -95 -44 -49 -83 -92 -86 -95 -3 -3 -104 -115 -224 -250 -121 -135
-238 -265 -261 -290 -42 -46 -91 -101 -224 -250 -41 -46 -87 -97 -101 -112
-15 -16 -53 -58 -85 -95 -33 -37 -72 -81 -89 -99 -16 -17 -57 -62 -90 -99 -33
-38 -65 -73 -70 -79 -6 -6 -50 -55 -98 -108 -48 -53 -98 -100 -110 -103 -12
-4 -30 -9 -40 -11 -16 -5 -17 74 -15 1588 l3 1593 245 2 c135 1 259 2 275 2
l31 1 0 95 -1 95 -1540 0 -1540 0 2 -88z"/>
</g>
</svg>
